
<svg xmlns="http://www.w3.org/2000/svg" style="display:none">
  <symbol id="icon-all-content" viewBox="0 0 16 16" fill="none" stroke="currentColor" stroke-width="1.5"><rect x="1" y="1" width="6" height="6" rx="1"></rect><rect x="9" y="1" width="6" height="6" rx="1"></rect><rect x="1" y="9" width="6" height="6" rx="1"></rect><rect x="9" y="9" width="6" height="6" rx="1"></rect></symbol>
  <symbol id="icon-folder" viewBox="0 0 16 16" fill="none" stroke="currentColor" stroke-width="1.5"><path d="M2 3a1 1 0 0 1 1-1h3.586a1 1 0 0 1 .707.293L8.707 3.707A1 1 0 0 0 9.414 4H13a1 1 0 0 1 1 1v8a1 1 0 0 1-1 1H3a1 1 0 0 1-1-1V3z"></path></symbol>
  <symbol id="icon-plus" viewBox="0 0 16 16" fill="none" stroke="currentColor" stroke-width="1.5"><path d="M8 3v10M3 8h10"></path></symbol>
  <symbol id="icon-media" viewBox="0 0 16 16" fill="none" stroke="currentColor" stroke-width="1.5"><rect x="1" y="1" width="14" height="14" rx="2"></rect><circle cx="5.5" cy="5.5" r="1.5"></circle><path d="M1 11l4-4 3 3 2-2 5 5"></path></symbol>
  <symbol id="icon-themes" viewBox="0 0 16 16" fill="none" stroke="currentColor" stroke-width="1.5"><rect x="1" y="1" width="6" height="9" rx="1"></rect><rect x="9" y="1" width="6" height="9" rx="1"></rect><rect x="1" y="12" width="14" height="3" rx="1"></rect></symbol>
  <symbol id="icon-backup" viewBox="0 0 16 16" fill="none" stroke="currentColor" stroke-width="1.5"><path d="M2 3a1 1 0 0 1 1-1h10a1 1 0 0 1 1 1v4H2V3z"></path><path d="M2 7h12v6a1 1 0 0 1-1 1H3a1 1 0 0 1-1-1V7z"></path><path d="M8 9v3M6 10.5l2 2 2-2"></path></symbol>
  <symbol id="icon-settings" viewBox="0 0 16 16" fill="none" stroke="currentColor" stroke-width="1.5"><circle cx="8" cy="8" r="2"></circle><path d="M8 1v2M8 13v2M1 8h2M13 8h2M3.05 3.05l1.41 1.41M11.54 11.54l1.41 1.41M3.05 12.95l1.41-1.41M11.54 4.46l1.41-1.41"></path></symbol>
  <symbol id="icon-logout" viewBox="0 0 16 16" fill="none" stroke="currentColor" stroke-width="1.5"><path d="M6 2H3a1 1 0 0 0-1 1v10a1 1 0 0 0 1 1h3M10 11l3-3-3-3M13 8H6"></path></symbol>
  <symbol id="icon-search" viewBox="0 0 16 16" fill="none" stroke="currentColor" stroke-width="1.5"><circle cx="6.5" cy="6.5" r="4"></circle><path d="M11 11l3 3"></path></symbol>
  <symbol id="icon-upload-cloud" viewBox="0 0 24 24" fill="none" stroke="currentColor" stroke-width="1.5"><path d="M21 15v4a2 2 0 0 1-2 2H5a2 2 0 0 1-2-2v-4"></path><polyline points="17 8 12 3 7 8"></polyline><line x1="12" y1="3" x2="12" y2="15"></line></symbol>
  <symbol id="icon-chevron-down" viewBox="0 0 24 24" fill="none" stroke="currentColor" stroke-width="2" stroke-linecap="round" stroke-linejoin="round"><polyline points="6 9 12 15 18 9"></polyline></symbol>
</svg>